# xmcd CD database file
#
# Track frame offsets:
#	150
#	22202
#	41000
#	61815
#	81360
#	104060
#	124675
#	151967
#	164927
#	188567
#
# Disc length: 2821 seconds
#
# Revision: 2
# Processed by: cddbd v1.4b41PL1 Copyright (c) Steve Scherf et al.
# Submitted via: Feurio! 1.50.2ß - http://www.feurio.com
#
DISCID=8a0b030a
DTITLE=Tom Cunningham - Lost In Thailand
DYEAR=1900
DGENRE=
TTITLE0=Help Me Valerie
TTITLE1=Find Me
TTITLE2=Dinner With My Ex
TTITLE3=The Fabulous Four
TTITLE4=Low-Rent Romeo
TTITLE5=Sweet Melissa
TTITLE6=Tie Me In A Knot
TTITLE7=Sweet Melody
TTITLE8=Lost In Thailand
TTITLE9=Another Shore
EXTD=
EXTT0=
EXTT1=
EXTT2=
EXTT3=
EXTT4=
EXTT5=
EXTT6=
EXTT7=
EXTT8=
EXTT9=
PLAYORDER=
